<svg xmlns="http://www.w3.org/2000/svg" version="1.1" width="1440" height="560" preserveAspectRatio="none" viewBox="0 0 1440 560"><g mask="url(&quot;#SvgjsMask1000&quot;)" fill="none"><rect width="1440" height="560" x="0" y="0" fill="#0e2a47"></rect><path d="M472.29 2.85a55.19 55.19 0 1 0-51.57 97.59z" stroke="#037b0b"></path><path d="M1188.74 443.95L1239.47 443.95L1239.47 494.68L1188.74 494.68z" fill="#037b0b"></path><path d="M234.34 320.71L271.07 320.71L271.07 357.44L234.34 357.44z" stroke="#d3b714"></path><path d="M448.97 194.14L468.57 194.14L468.57 213.74L448.97 213.74z" fill="#037b0b"></path><path d="M252.12 270.87a15.26 15.26 0 1 0-25.69 16.48z" stroke="#d3b714"></path><path d="M138.18 144.96a46.22 46.22 0 1 0 64.85-65.88z" fill="#e73635"></path><path d="M230.71 189.29 a44.79 44.79 0 1 0 89.58 0 a44.79 44.79 0 1 0 -89.58 0z" fill="#037b0b"></path><path d="M233.5 533.43L268.39 533.43L268.39 534.29L233.5 534.29z" fill="#e73635"></path><path d="M589.23 6.18 a18.7 18.7 0 1 0 37.4 0 a18.7 18.7 0 1 0 -37.4 0z" stroke="#037b0b"></path><path d="M881.34 378.92 a32.7 32.7 0 1 0 65.4 0 a32.7 32.7 0 1 0 -65.4 0z" fill="#037b0b"></path><path d="M1394.09 455.57L1405.5 455.57L1405.5 480.1L1394.09 480.1z" stroke="#037b0b"></path><path d="M661.18 149.93 a19.16 19.16 0 1 0 38.32 0 a19.16 19.16 0 1 0 -38.32 0z" stroke="#e73635"></path><path d="M1405.97 176.1a49.82 49.82 0 1 0 53.42-84.11z" fill="#d3b714"></path><path d="M449.71 517.54L456.51 517.54L456.51 545.03L449.71 545.03z" stroke="#d3b714"></path><path d="M1434.58 548.15L1485.02 548.15L1485.02 572.68L1434.58 572.68z" stroke="#037b0b"></path><path d="M266.35 469.06L304.99 469.06L304.99 507.7L266.35 507.7z" stroke="#e73635"></path><path d="M1289.82 113.47L1342.68 113.47L1342.68 166.33L1289.82 166.33z" stroke="#037b0b"></path><path d="M1007.35 183.75L1027.68 183.75L1027.68 185.25L1007.35 185.25z" stroke="#037b0b"></path><path d="M57.11 104.58L83.99 104.58L83.99 127.68L57.11 127.68z" stroke="#e73635"></path><path d="M943.51 8.16L993.94 8.16L993.94 58.59L943.51 58.59z" fill="#e73635"></path><path d="M256.93 203.08L306.25 203.08L306.25 252.4L256.93 252.4z" stroke="#e73635"></path><path d="M443.61 399.04a36.58 36.58 0 1 0 72.4-10.52z" stroke="#037b0b"></path><path d="M997.72 356.99L1028.18 356.99L1028.18 360.56L997.72 360.56z" stroke="#d3b714"></path><path d="M142.13 485.4L183.99 485.4L183.99 527.26L142.13 527.26z" fill="#d3b714"></path><path d="M1050.82 184.27 a6.56 6.56 0 1 0 13.12 0 a6.56 6.56 0 1 0 -13.12 0z" stroke="#037b0b"></path><path d="M46.16 80.05a50.32 50.32 0 1 0 94.42 34.82z" stroke="#e73635"></path><path d="M790.08 20.55L844.23 20.55L844.23 62.91L790.08 62.91z" stroke="#e73635"></path><path d="M349.79 471.72 a41.78 41.78 0 1 0 83.56 0 a41.78 41.78 0 1 0 -83.56 0z" fill="#d3b714"></path><path d="M234.65 342.2a12.58 12.58 0 1 0-17.88-17.7z" stroke="#e73635"></path><path d="M316.61 453.94L364.34 453.94L364.34 488.64L316.61 488.64z" stroke="#d3b714"></path><path d="M1409.75 47.66 a26.9 26.9 0 1 0 53.8 0 a26.9 26.9 0 1 0 -53.8 0z" fill="#037b0b"></path><path d="M604.74 436.76a12.62 12.62 0 1 0-19.43-16.11z" stroke="#e73635"></path><path d="M926.18 498.94a38.72 38.72 0 1 0 39.92 66.36z" stroke="#d3b714"></path></g><defs><mask id="SvgjsMask1000"><rect width="1440" height="560" fill="#ffffff"></rect></mask></defs></svg>